<?xml version="1.0"?>
<svg width="508" height="508" viewBox="0 0 508 508" xmlns="http://www.w3.org/2000/svg" xmlns:svg="http://www.w3.org/2000/svg">
 <g>
  <title>Layer 1</title>
  <circle id="svg_1" fill="#90dfaa" r="254" cy="254" cx="254"/>
  <path id="svg_2" fill="#74b287" d="m72.4,431.6c46,47.2 110.4,76.4 181.6,76.4s135.2,-29.2 181.6,-76.4l-363.2,0z"/>
  <path id="svg_3" fill="#a06731" d="m355.6,285.2c49.2,49.2 69.2,76.8 64.4,81.2c-4.8,4.8 -32.4,-15.6 -81.2,-64.4c-48.8,-49.2 -100.8,-108.4 -96,-113.2c4.4,-4.8 64,47.2 112.8,96.4z"/>
  <path id="svg_4" fill="#66411f" d="m263.6,200l-9.6,9.6c-4,4 -4,10.8 0,14.8l0,0c4,4 10.8,4 14.8,0l9.6,-9.6c4,-4 4,-10.8 0,-14.8l0,0c-4.4,-4 -10.8,-4 -14.8,0z"/>
  <g id="svg_5">
   <path id="svg_6" fill="#a06731" d="m218,246.4l-66.8,-66.8c-4,-4 -4,-10.4 0,-14l68.4,-68.4c4,-4 10.4,-4 14,0l66.8,66.8c4,4 4,10.4 0,14l-68.4,68.4c-4,4 -10.4,4 -14,0z"/>
   <path id="svg_7" fill="#a06731" d="m310,154.8l-67.6,-67.6c-3.6,-3.6 -3.6,-9.6 0,-13.2l0,0c3.6,-3.6 9.6,-3.6 13.2,0l67.6,67.6c3.6,3.6 3.6,9.6 0,13.2l0,0c-3.2,3.6 -9.2,3.6 -13.2,0z"/>
  </g>
  <rect id="svg_8" fill="#d38e4e" height="93.599" width="13.6" transform="matrix(-0.7071,0.7071,-0.7071,-0.7071,552.2394,22.5738) " y="78.86" x="264.645"/>
  <path id="svg_9" fill="#a06731" d="m141.2,188.8l67.6,67.6c3.6,3.6 3.6,9.6 0,13.2l0,0c-3.6,3.6 -9.6,3.6 -13.2,0l-68,-67.6c-3.6,-3.6 -3.6,-9.6 0,-13.2l0,0c4,-3.6 10,-3.6 13.6,0z"/>
  <g id="svg_10">
   <rect id="svg_11" fill="#d38e4e" height="93.599" width="13.6" transform="matrix(0.7071,-0.7071,0.7071,0.7071,-101.3154,190.9435) " y="170.971" x="173.032"/>
   <path id="svg_12" fill="#d38e4e" d="m247.2,376.8l-118,0l0,-11.2c0,-4.4 3.6,-7.6 7.6,-7.6l102.4,0c4.4,0 7.6,3.6 7.6,7.6l0,11.2l0.4,0z"/>
  </g>
  <path id="svg_13" fill="#a06731" d="m266,431.6l-156,0l0,-38c0,-11.6 9.2,-20.8 20.8,-20.8l114,0c11.6,0 20.8,9.2 20.8,20.8l0,38l0.4,0z"/>
  <g id="svg_14"/>
  <g id="svg_15"/>
  <g id="svg_16"/>
  <g id="svg_17"/>
  <g id="svg_18"/>
  <g id="svg_19"/>
  <g id="svg_20"/>
  <g id="svg_21"/>
  <g id="svg_22"/>
  <g id="svg_23"/>
  <g id="svg_24"/>
  <g id="svg_25"/>
  <g id="svg_26"/>
  <g id="svg_27"/>
  <g id="svg_28"/>
 </g>
</svg>