<?xml version="1.0"?>
<svg width="508" height="508" xmlns="http://www.w3.org/2000/svg" xmlns:svg="http://www.w3.org/2000/svg">
 <g>
  <title>Layer 1</title>
  <circle id="svg_1" fill="#FD8469" r="254" cy="254" cx="254"/>
  <path id="svg_2" fill="#F9B54C" d="m254.4,322.8c-0.4,0 -0.4,0 0,0c-0.4,0 -0.4,0 -0.4,0c-60.8,-29.6 -54,-68 -54,-68c0,-0.8 0,-1.2 0.4,-2c0.4,0.4 0.8,0.8 1.2,1.6c14,21.6 32.8,36.8 52.8,36.8c20.4,0 38.8,-15.2 53.2,-37.2c0.4,-0.4 0.4,-0.8 0.8,-0.8c0,0.4 0.4,1.2 0.4,1.6c0,0 0,0.4 0,0.8c0.4,6 0.8,40.4 -54.4,67.2z"/>
  <path id="svg_3" fill="#F1543F" d="m254.4,322.8c-0.4,0 -0.4,0 0,0c-0.4,0 -0.4,0 -0.4,0l0.4,0z"/>
  <path id="svg_4" fill="#324A5E" d="m254,508c82,0 154.4,-38.8 200.8,-98.8l-26,-80l-109.2,-52.8c0,18.8 -0.8,51.2 -6.8,92.8c-13.6,-42.8 -58.8,-46.4 -58.8,-46.4s-45.2,3.6 -58.8,46.4c-6,-41.6 -6.8,-74.4 -6.8,-92.8l-109.6,52.8l-26,80c46.8,60 119.2,98.8 201.2,98.8z"/>
  <g id="svg_5">
   <path id="svg_6" fill="#FFFFFF" d="m308.4,254.8c0,0 6.8,38.4 -54.4,68.4c0,0 45.6,3.6 58.8,46.4c0.8,1.2 25.6,-92 -4.4,-114.8z"/>
   <path id="svg_7" fill="#FFFFFF" d="m199.6,254.8c-30,22.8 -5.2,116 -4.8,114.4c13.6,-42.8 59.2,-46.4 59.2,-46.4c-61.2,-29.6 -54.4,-68 -54.4,-68z"/>
  </g>
  <g id="svg_8">
   <path id="svg_9" fill="#FFD05B" d="m316.8,236l0,0c-14.8,31.2 -37.2,54.8 -62.8,54.8c-27.6,0 -51.6,-27.6 -66.4,-62.4c-5.6,-0.4 -12,-4.8 -15.2,-12c-3.6,-7.2 -3.2,-14.8 0,-19.6c6.8,18.4 15.2,30.8 15.2,30.8c-19.6,-45.6 15.2,-98.8 15.2,-98.8c53.6,13.6 76.4,-2.8 76.4,-2.8c39.2,-6.8 43.6,18.8 42.4,35.2c-0.8,9.2 0.4,18 1.6,27.2c2.8,22.8 -4.8,44.4 -6.4,47.6z"/>
   <path id="svg_10" fill="#FFD05B" d="m335.6,216.4c-3.2,6.4 -8,10.8 -13.2,12c4,-6.4 9.6,-16.4 14.8,-28.4c1.6,4.8 1.2,10.8 -1.6,16.4z"/>
  </g>
  <g id="svg_11">
   <path id="svg_12" fill="#324A5E" d="m320.4,76.8c-31.2,-29.2 -66.4,-30.4 -66.4,-30.4c6.8,5.2 0,10.8 0,10.8c-11.6,-14.4 -32,-5.6 -32,-5.6c14,4 18.4,11.2 18.4,11.2c-45.2,-14.8 -68,27.2 -68,27.2l18.4,-3.6c-60.8,54.8 -3.2,141.6 -3.2,141.6c-19.6,-45.6 15.2,-98.8 15.2,-98.8c53.6,13.6 76.4,-2.8 76.4,-2.8c39.2,-6.8 43.6,18.8 42.4,35.2c-0.8,9.2 0.4,18 1.6,27.2c3.2,24.8 -6.4,47.6 -6.4,47.6s71.6,-94.8 3.6,-159.6z"/>
   <path id="svg_13" fill="#324A5E" d="m322.4,228.4c-2.8,4.4 -4.8,7.2 -5.6,8l0,0c0,0 0,0 0,-0.4c1.2,-2.4 2.4,-4.8 3.2,-7.6c0.8,0 1.6,0 2.4,0z"/>
  </g>
  <circle id="svg_14" fill="#FFFFFF" r="57.2" cy="324" cx="407.2"/>
  <path id="svg_15" fill="#84DBFF" d="m441.2,333.2l-68.4,0c-5.2,0 -9.2,-4 -9.2,-9.2l0,0c0,-5.2 4,-9.2 9.2,-9.2l68.4,0c5.2,0 9.2,4 9.2,9.2l0,0c0,4.8 -4,9.2 -9.2,9.2z"/>
  <g id="svg_16"/>
  <g id="svg_17"/>
  <g id="svg_18"/>
  <g id="svg_19"/>
  <g id="svg_20"/>
  <g id="svg_21"/>
  <g id="svg_22"/>
  <g id="svg_23"/>
  <g id="svg_24"/>
  <g id="svg_25"/>
  <g id="svg_26"/>
  <g id="svg_27"/>
  <g id="svg_28"/>
  <g id="svg_29"/>
  <g id="svg_30"/>
  <path transform="rotate(90 408.3999938964844,324.2000122070313) " id="svg_31" fill="#84DBFF" d="m442.599994,333.399997l-68.4,0c-5.2,0 -9.2,-4 -9.2,-9.2l0,0c0,-5.2 4,-9.2 9.2,-9.2l68.4,0c5.2,0 9.2,4 9.2,9.2l0,0c0,4.8 -4,9.2 -9.2,9.2z"/>
 </g>
</svg>